{
  "accessors": [
    {
      "bufferView": 2,
      "componentType": 5126,
      "count": 24,
      "max": [
        0.008874000050127506,
        -0.03954700008034706,
        0.7552459836006165
      ],
      "min": [
        -0.01284400001168251,
        -0.04160299897193909,
        0.7510409951210022
      ],
      "type": "VEC3"
    },
    {
      "bufferView": 2,
      "byteOffset": 288,
      "componentType": 5126,
      "count": 24,
      "max": [
        0.6962417960166931,
        -0.47664695978164673,
        0.47584599256515503
      ],
      "min": [
        -0.690380871295929,
        -0.9636850953102112,
        -0.8790404796600342
      ],
      "type": "VEC3"
    },
    {
      "bufferView": 1,
      "componentType": 5126,
      "count": 24,
      "max": [
        0.9948539733886719,
        0.9821400046348572
      ],
      "min": [
        0.0051460000686347485,
        0.01785999909043312
      ],
      "type": "VEC2"
    },
    {
      "bufferView": 0,
      "componentType": 5125,
      "count": 48,
      "type": "SCALAR"
    },
    {
      "bufferView": 2,
      "byteOffset": 576,
      "componentType": 5126,
      "count": 126,
      "max": [
        0.024542000144720078,
        -0.040731001645326614,
        0.7183120250701904
      ],
      "min": [
        -0.028529999777674675,
        -0.05283999815583229,
        0.7075440287590027
      ],
      "type": "VEC3"
    },
    {
      "bufferView": 2,
      "byteOffset": 2088,
      "componentType": 5126,
      "count": 126,
      "max": [
        0.8526289463043213,
        0.915641725063324,
        0.9493211507797241
      ],
      "min": [
        -0.8526600003242493,
        -0.9162433743476868,
        -0.9093114733695984
      ],
      "type": "VEC3"
    },
    {
      "bufferView": 1,
      "byteOffset": 192,
      "componentType": 5126,
      "count": 126,
      "max": [
        0.991208016872406,
        0.9914330244064331
      ],
      "min": [
        0.008791999891400337,
        0.008566999807953835
      ],
      "type": "VEC2"
    },
    {
      "bufferView": 0,
      "byteOffset": 192,
      "componentType": 5125,
      "count": 312,
      "type": "SCALAR"
    },
    {
      "bufferView": 2,
      "byteOffset": 3600,
      "componentType": 5126,
      "count": 2523,
      "max": [
        0.05148100107908249,
        0.044624000787734985,
        0.7671949863433838
      ],
      "min": [
        -0.05548100173473358,
        -0.05862300097942352,
        0.652804970741272
      ],
      "type": "VEC3"
    },
    {
      "bufferView": 2,
      "byteOffset": 33876,
      "componentType": 5126,
      "count": 2523,
      "max": [
        1.0,
        0.9990426301956177,
        0.9954485297203064
      ],
      "min": [
        -1.0,
        -0.9999047517776489,
        -0.9954358339309692
      ],
      "type": "VEC3"
    },
    {
      "bufferView": 1,
      "byteOffset": 1200,
      "componentType": 5126,
      "count": 2523,
      "max": [
        0.9920769929885864,
        0.9920759797096252
      ],
      "min": [
        0.007922999560832977,
        0.007923999801278114
      ],
      "type": "VEC2"
    },
    {
      "bufferView": 0,
      "byteOffset": 1440,
      "componentType": 5125,
      "count": 7728,
      "type": "SCALAR"
    }
  ],
  "asset": {
    "extras": {
      "author": "Fatdingo (https://sketchfab.com/Fatdingo)",
      "license": "CC-BY-4.0 (http://creativecommons.org/licenses/by/4.0/)",
      "source": "https://sketchfab.com/3d-models/space-marine-helmet-7c87a90721a74f02b3943fdb1a4cc0be",
      "title": "space marine helmet"
    },
    "generator": "Sketchfab-12.68.0",
    "version": "2.0"
  },
  "bufferViews": [
    {
      "buffer": 0,
      "byteLength": 32352,
      "name": "floatBufferViews",
      "target": 34963
    },
    {
      "buffer": 0,
      "byteLength": 21384,
      "byteOffset": 32352,
      "byteStride": 8,
      "name": "floatBufferViews",
      "target": 34962
    },
    {
      "buffer": 0,
      "byteLength": 64152,
      "byteOffset": 53736,
      "byteStride": 12,
      "name": "floatBufferViews",
      "target": 34962
    }
  ],
  "buffers": [
    {
      "byteLength": 117888,
      "uri": "scene.bin"
    }
  ],
  "materials": [
    {
      "doubleSided": true,
      "name": "ecouteur",
      "pbrMetallicRoughness": {
        "metallicFactor": 0.0,
        "roughnessFactor": 0.6
      }
    },
    {
      "doubleSided": true,
      "name": "lux.1",
      "pbrMetallicRoughness": {
        "metallicFactor": 0.0,
        "roughnessFactor": 0.6
      }
    },
    {
      "doubleSided": true,
      "name": "visiere.1",
      "pbrMetallicRoughness": {
        "metallicFactor": 0.0,
        "roughnessFactor": 0.6
      }
    }
  ],
  "meshes": [
    {
      "name": "Object_0",
      "primitives": [
        {
          "attributes": {
            "NORMAL": 1,
            "POSITION": 0,
            "TEXCOORD_0": 2
          },
          "indices": 3,
          "material": 1,
          "mode": 4
        }
      ]
    },
    {
      "name": "Object_1",
      "primitives": [
        {
          "attributes": {
            "NORMAL": 5,
            "POSITION": 4,
            "TEXCOORD_0": 6
          },
          "indices": 7,
          "material": 2,
          "mode": 4
        }
      ]
    },
    {
      "name": "Object_2",
      "primitives": [
        {
          "attributes": {
            "NORMAL": 9,
            "POSITION": 8,
            "TEXCOORD_0": 10
          },
          "indices": 11,
          "material": 0,
          "mode": 4
        }
      ]
    }
  ],
  "nodes": [
    {
      "children": [
        1
      ],
      "matrix": [
        1.0,
        0.0,
        0.0,
        0.0,
        0.0,
        2.220446049250313e-16,
        -1.0,
        0.0,
        0.0,
        1.0,
        2.220446049250313e-16,
        0.0,
        0.0,
        0.0,
        0.0,
        1.0
      ],
      "name": "Sketchfab_model"
    },
    {
      "children": [
        2,
        3,
        4
      ],
      "name": "cba4940ffefd45278a46507bf0f425bd.obj.cleaner.materialmerger.gles"
    },
    {
      "mesh": 0,
      "name": "Object_2"
    },
    {
      "mesh": 1,
      "name": "Object_3"
    },
    {
      "mesh": 2,
      "name": "Object_4"
    }
  ],
  "scene": 0,
  "scenes": [
    {
      "name": "Sketchfab_Scene",
      "nodes": [
        0
      ]
    }
  ]
}
